<svg xmlns="http://www.w3.org/2000/svg" viewBox="0 0 121 116"><g stroke="#580700" stroke-linecap="round" stroke-linejoin="round" stroke-width="5.5"><path fill="#f38963" d="M21.499 30.8S1.521 17.418 18.907 6.426C39.304-6.468 48.533 21.181 48.533 21.181S74.61 6.293 81.11 28.65c4.912 16.903-16.72 13.587-16.72 13.587 6.25 4.044 14.649 28.02-8.318 29.894-22.616 1.846-20.276-19.236-20.276-19.236S17.009 67.39 6.162 50.815C-4.362 34.737 14.146 26.02 21.499 30.8"/><path fill="#eebf6f" d="M94.805 75.25s10.151-14.298 18.976-2.079c6.759 9.358-6.759 16.117-6.759 16.117s17.376 4.12 8.408 16.852c-11.824 16.786-22.876-2.15-21.405-6.194-1.838 7.352-14.97 13.866-19.326 4.85-6.883-14.25 11.008-13.948 11.008-13.948s-18.583-6.094-8.839-18.197c8.647-10.739 17.937 2.6 17.937 2.6"/><path fill="#88c242" d="M92.984 43.277c0 7.018 10.398 12.478 14.038 2.08 3.639-10.398-14.038-11.438-14.038-2.08"/></g></svg>