<svg xmlns="http://www.w3.org/2000/svg" viewBox="0 0 66 65"><g stroke="#580700" stroke-linecap="round" stroke-linejoin="round" stroke-width="5.5"><path fill="#8dc44a" d="M33.045 27.56c-2.936-2.135-4.021-18.002 10.568-14.343 11.674 2.928 5.487 14.584 4.152 16.986 2.402-.8 18.265-.966 14.72 13.21-3.187 12.752-16.028 4.465-17.362 3.398 0 0 5.155 16.764-11.076 14.5-16.23-2.266-6.912-19.895-4.777-20.162 0 0-14.545 8.285-15.853-6.794-1.164-13.422 15.624-12.132 19.628-6.794"/><path fill="#79bcf7" d="M3.226 6.046c-2.024 9.768 10.192 7.926 10.569 2.642S6.245.384 3.226 6.046"/></g></svg>